<?xml version="1.0" encoding="UTF-8"?><svg id="Layer_1" xmlns="http://www.w3.org/2000/svg" viewBox="0 0 100 100"><path id="Rectangle_227" d="M10.234,7.333h80c4.418,0,8,3.582,8,8h0c0,4.418-3.582,8-8,8H10.234c-4.418,0-8-3.582-8-8h0c0-4.418,3.582-8,8-8Z"/><path id="Rectangle_228" d="M10.234,42h80c4.418,0,8,3.582,8,8h0c0,4.418-3.582,8-8,8H10.234c-4.418,0-8-3.582-8-8h0c0-4.418,3.582-8,8-8Z"/><path id="Rectangle_229" d="M10.234,76.667h80c4.418,0,8,3.582,8,8h0c0,4.418-3.582,8-8,8H10.234c-4.418,0-8-3.582-8-8h0c0-4.418,3.582-8,8-8Z"/></svg>