<?xml version="1.0" encoding="UTF-8"?><svg id="play-button" xmlns="http://www.w3.org/2000/svg" viewBox="0 0 100 100"><path d="M50,4c25.364,0,46,20.636,46,46s-20.636,46-46,46S4,75.364,4,50,24.636,4,50,4M50,2C23.49,2,2,23.49,2,50s21.49,48,48,48,48-21.49,48-48S76.51,2,50,2h0Z"/><path id="Polygon_10" d="M76.367,46.539c1.911,1.032,2.625,3.417,1.593,5.329-.364.675-.918,1.229-1.593,1.593l-36.95,19.953c-1.911,1.032-4.297.319-5.329-1.593-.31-.574-.472-1.216-.472-1.868V30.047c0-2.172,1.761-3.933,3.933-3.933.652,0,1.294.162,1.868.472l36.95,19.953Z"/></svg>