<?xml version="1.0" encoding="UTF-8"?><svg id="search" xmlns="http://www.w3.org/2000/svg" viewBox="0 0 100 100"><path d="M96.791,90.876l-29.809-29.809c-.061-.061-.132-.103-.195-.159,5.099-6.402,7.875-14.277,7.875-22.583,0-9.707-3.78-18.832-10.643-25.695-6.863-6.864-15.989-10.644-25.695-10.644s-18.832,3.78-25.696,10.644h0C5.764,19.492,1.984,28.618,1.984,38.324s3.78,18.832,10.643,25.695c6.864,6.864,15.99,10.644,25.696,10.644,8.307,0,16.183-2.776,22.585-7.877.056.063.098.134.159.194l29.809,29.809c.817.817,1.887,1.225,2.958,1.225s2.141-.408,2.957-1.225c1.633-1.633,1.633-4.282,0-5.914ZM38.323,66.299c-7.472,0-14.497-2.91-19.781-8.193-10.908-10.907-10.908-28.655,0-39.562,5.284-5.283,12.309-8.194,19.781-8.194s14.497,2.91,19.78,8.194c10.908,10.907,10.908,28.654,0,39.562-5.284,5.283-12.308,8.193-19.78,8.193Z"/></svg>