<?xml version="1.0" encoding="UTF-8"?><svg id="Layer_1" xmlns="http://www.w3.org/2000/svg" viewBox="0 0 100 100"><g id="Group_315"><path id="Rectangle_325" d="M8.857,19.143h82.286c3.787,0,6.857,3.07,6.857,6.857h0c0,3.787-3.07,6.857-6.857,6.857H8.857c-3.787,0-6.857-3.07-6.857-6.857h0c0-3.787,3.07-6.857,6.857-6.857Z"/><path id="Rectangle_326" d="M22.571,43.143h54.857c3.787,0,6.857,3.07,6.857,6.857h0c0,3.787-3.07,6.857-6.857,6.857H22.571c-3.787,0-6.857-3.07-6.857-6.857h0c0-3.787,3.07-6.857,6.857-6.857Z"/><path id="Rectangle_327" d="M39.714,67.143h20.571c3.787,0,6.857,3.07,6.857,6.857h0c0,3.787-3.07,6.857-6.857,6.857h-20.571c-3.787,0-6.857-3.07-6.857-6.857h0c0-3.787,3.07-6.857,6.857-6.857Z"/></g></svg>